<svg xmlns="http://www.w3.org/2000/svg" xmlns:xlink="http://www.w3.org/1999/xlink" aria-hidden="true" role="img" class="css-ze2te4 css-qd6ojx" viewBox="0 0 134.6153846153846 136.69968302566582">
  
  
    <defs>
        <linearGradient id="IconifyId1813088fe1fbc01fb467" x1="43.376%" x2="50.316%" y1="2.242%" y2="89.03%">
            <stop offset="0%" stop-color="#FFEA83"></stop>
            <stop offset="8.333%" stop-color="#FFDD35"></stop>
            <stop offset="100%" stop-color="#FFA800"></stop>
        </linearGradient>
    </defs>
    <g transform="translate(-17.719032672638924, -17.207150345472783) scale(1.7062841873235752)" class="css-1miw5mz"
    fill="url(#IconifyId1813088fe1fbc01fb467)">
        <path xmlns="http://www.w3.org/2000/svg"
            d="M19.4,78.6c0.2,0.1,0.4,0.2,0.6,0.2c0.1,0,0.1,0,0.2,0L42,75.5c0,0,0.1,0,0.1,0l29.3,14.6c0.1,0.1,0.3,0.1,0.4,0.1  c0.4,0,0.7-0.2,0.9-0.6l16.5-33.1c0.2-0.5,0-1.1-0.4-1.3l-15.7-7.8l1-1.9l1,0.5c0.1,0.1,0.3,0.1,0.4,0.1c0.1,0,0.2,0,0.3-0.1  c0.3-0.1,0.5-0.3,0.6-0.5l4.9-9.9c0.1-0.2,0.1-0.5,0.1-0.8c-0.1-0.3-0.3-0.5-0.5-0.6l-17.3-8.6c-0.2-0.1-0.5-0.1-0.8-0.1  c-0.3,0.1-0.5,0.3-0.6,0.5l-2.5,5l-2.7-17.4c0-0.3-0.2-0.5-0.4-0.7c-0.2-0.2-0.5-0.2-0.7-0.2l-3.5,0.5l-0.4-2.3  c-0.1-0.5-0.6-0.9-1.1-0.8c-0.5,0.1-0.9,0.6-0.8,1.1l0.4,2.3l-1.3,0.2l-0.4-2.3c-0.1-0.5-0.6-0.9-1.1-0.8c-0.5,0.1-0.9,0.6-0.8,1.1  l0.4,2.3l-5.7,0.9l-0.4-2.3c-0.1-0.5-0.6-0.9-1.1-0.8c-0.5,0.1-0.9,0.6-0.8,1.1l0.4,2.3l-1.3,0.2l-0.4-2.3c-0.1-0.5-0.6-0.9-1.1-0.8  c-0.5,0.1-0.9,0.6-0.8,1.1l0.4,2.3l-5.7,0.9l-0.4-2.3c-0.1-0.5-0.6-0.9-1.1-0.8c-0.5,0.1-0.9,0.6-0.8,1.1l0.4,2.3l-1.3,0.2L26.9,15  c-0.1-0.5-0.6-0.9-1.1-0.8c-0.5,0.1-0.9,0.6-0.8,1.1l0.4,2.3l-5.7,0.9l-0.4-2.3c-0.1-0.5-0.6-0.9-1.1-0.8c-0.5,0.1-0.9,0.6-0.8,1.1  l0.4,2.3l-1.3,0.2L16,16.6c-0.1-0.5-0.6-0.9-1.1-0.8c-0.5,0.1-0.9,0.6-0.8,1.1l0.4,2.3l-3.3,0.5c-0.5,0.1-0.9,0.6-0.8,1.1L19,78  C19.1,78.3,19.2,78.5,19.4,78.6z M71.4,87.8L26.5,65.4l15.6-31.2l0.3,0l44.6,22.3L71.4,87.8z M71.4,46.4l-11.1-5.5l1-1.9l11.1,5.5  L71.4,46.4z M63.7,27.9l15.5,7.7l-4,8.1l-15.5-7.7L63.7,27.9z M14.7,21.2l0.4,2.3c0.1,0.5,0.5,0.8,1,0.8c0,0,0.1,0,0.2,0  c0.5-0.1,0.9-0.6,0.8-1.1l-0.4-2.3l1.3-0.2l0.4,2.3c0.1,0.5,0.5,0.8,1,0.8c0,0,0.1,0,0.2,0c0.5-0.1,0.9-0.6,0.8-1.1l-0.4-2.3  l5.7-0.9l0.4,2.3c0.1,0.5,0.5,0.8,1,0.8c0,0,0.1,0,0.2,0c0.5-0.1,0.9-0.6,0.8-1.1l-0.4-2.3l1.3-0.2l0.4,2.3c0.1,0.5,0.5,0.8,1,0.8  c0,0,0.1,0,0.2,0c0.5-0.1,0.9-0.6,0.8-1.1l-0.4-2.3l5.7-0.9l0.4,2.3c0.1,0.5,0.5,0.8,1,0.8c0,0,0.1,0,0.2,0c0.5-0.1,0.9-0.6,0.8-1.1  l-0.4-2.3l1.3-0.2l0.4,2.3c0.1,0.5,0.5,0.8,1,0.8c0,0,0.1,0,0.2,0c0.5-0.1,0.9-0.6,0.8-1.1L41.9,17l5.7-0.9l0.4,2.3  c0.1,0.5,0.5,0.8,1,0.8c0,0,0.1,0,0.2,0c0.5-0.1,0.9-0.6,0.8-1.1l-0.4-2.3l1.3-0.2l0.4,2.3c0.1,0.5,0.5,0.8,1,0.8c0,0,0.1,0,0.2,0  c0.5-0.1,0.9-0.6,0.8-1.1l-0.4-2.3l2.5-0.4l3,19.2l-0.9,1.7c-0.2,0.5,0,1.1,0.4,1.3l1.6,0.8l-1,1.9l-12.7-6.3l8.6-1.3  c0.5-0.1,0.9-0.6,0.8-1.1c-0.1-0.5-0.6-0.9-1.1-0.8l-11.4,1.7l-0.6-0.3c-0.2-0.1-0.5-0.1-0.8-0.1c-0.3,0.1-0.5,0.3-0.6,0.5l-0.1,0.1  l-22.8,3.5c-0.5,0.1-0.9,0.6-0.8,1.1c0.1,0.5,0.5,0.8,1,0.8c0,0,0.1,0,0.2,0l21.4-3.3l-3.5,6.9l-17,2.6c-0.5,0.1-0.9,0.6-0.8,1.1  c0.1,0.5,0.5,0.8,1,0.8c0,0,0.1,0,0.2,0l15.6-2.4l-3.5,6.9c0,0,0,0-0.1,0l-11.1,1.7c-0.5,0.1-0.9,0.6-0.8,1.1c0.1,0.5,0.5,0.8,1,0.8  c0,0,0.1,0,0.2,0l9.8-1.5l-3.5,6.9c0,0-0.1,0-0.1,0l-5.3,0.8c-0.5,0.1-0.9,0.6-0.8,1.1c0.1,0.5,0.5,0.8,1,0.8c0,0,0.1,0,0.2,0l4-0.6  l-1.7,3.5c-0.2,0.5,0,1.1,0.4,1.3l2.7,1.3L23,68.8c-0.5,0.1-0.9,0.6-0.8,1.1c0.1,0.5,0.5,0.8,1,0.8c0,0,0.1,0,0.2,0l7-1.1  c0.1,0,0.1,0,0.2-0.1l8.6,4.3l-18.2,2.8l-8.5-55.1L14.7,21.2z">
        </path>
        <path xmlns="http://www.w3.org/2000/svg"
            d="M54,23c-0.1-0.5-0.6-0.9-1.1-0.8l-36.2,5.6c-0.5,0.1-0.9,0.6-0.8,1.1c0.1,0.5,0.5,0.8,1,0.8c0,0,0.1,0,0.2,0l36.2-5.6  C53.7,24,54.1,23.5,54,23z">
        </path>
        <path xmlns="http://www.w3.org/2000/svg"
            d="M68.4,38.8c0.1,0.4,0.5,0.7,0.9,0.7c0.1,0,0.2,0,0.3-0.1l6.5-2.2c0.5-0.2,0.8-0.7,0.6-1.3s-0.7-0.8-1.3-0.6l-6.5,2.2  C68.5,37.7,68.3,38.3,68.4,38.8z">
        </path>
        <path xmlns="http://www.w3.org/2000/svg"
            d="M65.6,37.6c0.1,0,0.2,0,0.3-0.1l6.5-2.2c0.5-0.2,0.8-0.7,0.6-1.3s-0.7-0.8-1.3-0.6l-6.5,2.2c-0.5,0.2-0.8,0.7-0.6,1.3  C64.8,37.4,65.2,37.6,65.6,37.6z">
        </path>
        <path xmlns="http://www.w3.org/2000/svg"
            d="M40.5,42.8c-0.1,0.2-0.1,0.5-0.1,0.8c0.1,0.3,0.3,0.5,0.5,0.6l7.4,3.7c0.1,0.1,0.3,0.1,0.4,0.1c0.4,0,0.7-0.2,0.9-0.6  l2.4-4.9c0.1-0.2,0.1-0.5,0.1-0.8c-0.1-0.3-0.3-0.5-0.5-0.6l-7.4-3.7c-0.5-0.2-1.1,0-1.3,0.4L40.5,42.8z M44.2,39.7l5.6,2.8  l-1.5,3.1l-5.6-2.8L44.2,39.7z">
        </path>
        <path xmlns="http://www.w3.org/2000/svg"
            d="M43.8,55.1c-3.6,7.2-0.7,16.1,6.6,19.7c2.1,1,4.3,1.6,6.5,1.6c1.6,0,3.1-0.3,4.7-0.8c3.7-1.2,6.7-3.9,8.5-7.4  c3.6-7.2,0.7-16.1-6.6-19.7c-3.5-1.8-7.5-2-11.2-0.8C48.5,48.9,45.5,51.6,43.8,55.1z M52.9,49.6c1.3-0.4,2.7-0.7,4-0.7  c1.9,0,3.9,0.5,5.6,1.3c6.2,3.1,8.8,10.7,5.7,17v0c-1.5,3-4.1,5.3-7.3,6.4c-3.2,1.1-6.6,0.8-9.7-0.7c-6.2-3.1-8.8-10.7-5.7-17  C47.1,52.9,49.7,50.7,52.9,49.6z">
        </path>
        <path xmlns="http://www.w3.org/2000/svg" 
            d="M52.2,71c1.5,0.7,3.1,1.1,4.7,1.1c1.1,0,2.2-0.2,3.3-0.5c2.7-0.9,4.8-2.8,6.1-5.3c0,0,0,0,0,0c1.2-2.5,1.5-5.3,0.6-8  c-0.9-2.7-2.8-4.8-5.3-6.1c-5.2-2.6-11.5-0.5-14.1,4.7c-1.3,2.5-1.5,5.3-0.6,8C47.8,67.6,49.7,69.7,52.2,71z M49.3,57.8  c1.5-3,4.5-4.7,7.6-4.7c1.3,0,2.6,0.3,3.8,0.9c2,1,3.5,2.8,4.3,4.9s0.6,4.4-0.5,6.5v0c-1,2-2.8,3.5-4.9,4.3  c-2.1,0.7-4.4,0.6-6.5-0.5c-2-1-3.5-2.8-4.3-4.9S48.3,59.9,49.3,57.8z">
        </path>
    </g>
</svg>