<svg xmlns="http://www.w3.org/2000/svg" xmlns:xlink="http://www.w3.org/1999/xlink" aria-hidden="true" role="img" width="440.05" height="68.2621370199699" viewBox="0 0 369.5483870967742 57.32567352689212" class="css-1j8o68f">
    <defs id="SvgjsDefs2970"></defs>
    <g id="SvgjsG2971" featurekey="symbolFeature-0"
        transform="matrix(0.7155385301679509,0,0,0.7155385301679509,-7.430562088526001,-7.215901757778909)"
        fill="#222831">
        <path xmlns="http://www.w3.org/2000/svg"
            d="M19.4,78.6c0.2,0.1,0.4,0.2,0.6,0.2c0.1,0,0.1,0,0.2,0L42,75.5c0,0,0.1,0,0.1,0l29.3,14.6c0.1,0.1,0.3,0.1,0.4,0.1  c0.4,0,0.7-0.2,0.9-0.6l16.5-33.1c0.2-0.5,0-1.1-0.4-1.3l-15.7-7.8l1-1.9l1,0.5c0.1,0.1,0.3,0.1,0.4,0.1c0.1,0,0.2,0,0.3-0.1  c0.3-0.1,0.5-0.3,0.6-0.5l4.9-9.9c0.1-0.2,0.1-0.5,0.1-0.8c-0.1-0.3-0.3-0.5-0.5-0.6l-17.3-8.6c-0.2-0.1-0.5-0.1-0.8-0.1  c-0.3,0.1-0.5,0.3-0.6,0.5l-2.5,5l-2.7-17.4c0-0.3-0.2-0.5-0.4-0.7c-0.2-0.2-0.5-0.2-0.7-0.2l-3.5,0.5l-0.4-2.3  c-0.1-0.5-0.6-0.9-1.1-0.8c-0.5,0.1-0.9,0.6-0.8,1.1l0.4,2.3l-1.3,0.2l-0.4-2.3c-0.1-0.5-0.6-0.9-1.1-0.8c-0.5,0.1-0.9,0.6-0.8,1.1  l0.4,2.3l-5.7,0.9l-0.4-2.3c-0.1-0.5-0.6-0.9-1.1-0.8c-0.5,0.1-0.9,0.6-0.8,1.1l0.4,2.3l-1.3,0.2l-0.4-2.3c-0.1-0.5-0.6-0.9-1.1-0.8  c-0.5,0.1-0.9,0.6-0.8,1.1l0.4,2.3l-5.7,0.9l-0.4-2.3c-0.1-0.5-0.6-0.9-1.1-0.8c-0.5,0.1-0.9,0.6-0.8,1.1l0.4,2.3l-1.3,0.2L26.9,15  c-0.1-0.5-0.6-0.9-1.1-0.8c-0.5,0.1-0.9,0.6-0.8,1.1l0.4,2.3l-5.7,0.9l-0.4-2.3c-0.1-0.5-0.6-0.9-1.1-0.8c-0.5,0.1-0.9,0.6-0.8,1.1  l0.4,2.3l-1.3,0.2L16,16.6c-0.1-0.5-0.6-0.9-1.1-0.8c-0.5,0.1-0.9,0.6-0.8,1.1l0.4,2.3l-3.3,0.5c-0.5,0.1-0.9,0.6-0.8,1.1L19,78  C19.1,78.3,19.2,78.5,19.4,78.6z M71.4,87.8L26.5,65.4l15.6-31.2l0.3,0l44.6,22.3L71.4,87.8z M71.4,46.4l-11.1-5.5l1-1.9l11.1,5.5  L71.4,46.4z M63.7,27.9l15.5,7.7l-4,8.1l-15.5-7.7L63.7,27.9z M14.7,21.2l0.4,2.3c0.1,0.5,0.5,0.8,1,0.8c0,0,0.1,0,0.2,0  c0.5-0.1,0.9-0.6,0.8-1.1l-0.4-2.3l1.3-0.2l0.4,2.3c0.1,0.5,0.5,0.8,1,0.8c0,0,0.1,0,0.2,0c0.5-0.1,0.9-0.6,0.8-1.1l-0.4-2.3  l5.7-0.9l0.4,2.3c0.1,0.5,0.5,0.8,1,0.8c0,0,0.1,0,0.2,0c0.5-0.1,0.9-0.6,0.8-1.1l-0.4-2.3l1.3-0.2l0.4,2.3c0.1,0.5,0.5,0.8,1,0.8  c0,0,0.1,0,0.2,0c0.5-0.1,0.9-0.6,0.8-1.1l-0.4-2.3l5.7-0.9l0.4,2.3c0.1,0.5,0.5,0.8,1,0.8c0,0,0.1,0,0.2,0c0.5-0.1,0.9-0.6,0.8-1.1  l-0.4-2.3l1.3-0.2l0.4,2.3c0.1,0.5,0.5,0.8,1,0.8c0,0,0.1,0,0.2,0c0.5-0.1,0.9-0.6,0.8-1.1L41.9,17l5.7-0.9l0.4,2.3  c0.1,0.5,0.5,0.8,1,0.8c0,0,0.1,0,0.2,0c0.5-0.1,0.9-0.6,0.8-1.1l-0.4-2.3l1.3-0.2l0.4,2.3c0.1,0.5,0.5,0.8,1,0.8c0,0,0.1,0,0.2,0  c0.5-0.1,0.9-0.6,0.8-1.1l-0.4-2.3l2.5-0.4l3,19.2l-0.9,1.7c-0.2,0.5,0,1.1,0.4,1.3l1.6,0.8l-1,1.9l-12.7-6.3l8.6-1.3  c0.5-0.1,0.9-0.6,0.8-1.1c-0.1-0.5-0.6-0.9-1.1-0.8l-11.4,1.7l-0.6-0.3c-0.2-0.1-0.5-0.1-0.8-0.1c-0.3,0.1-0.5,0.3-0.6,0.5l-0.1,0.1  l-22.8,3.5c-0.5,0.1-0.9,0.6-0.8,1.1c0.1,0.5,0.5,0.8,1,0.8c0,0,0.1,0,0.2,0l21.4-3.3l-3.5,6.9l-17,2.6c-0.5,0.1-0.9,0.6-0.8,1.1  c0.1,0.5,0.5,0.8,1,0.8c0,0,0.1,0,0.2,0l15.6-2.4l-3.5,6.9c0,0,0,0-0.1,0l-11.1,1.7c-0.5,0.1-0.9,0.6-0.8,1.1c0.1,0.5,0.5,0.8,1,0.8  c0,0,0.1,0,0.2,0l9.8-1.5l-3.5,6.9c0,0-0.1,0-0.1,0l-5.3,0.8c-0.5,0.1-0.9,0.6-0.8,1.1c0.1,0.5,0.5,0.8,1,0.8c0,0,0.1,0,0.2,0l4-0.6  l-1.7,3.5c-0.2,0.5,0,1.1,0.4,1.3l2.7,1.3L23,68.8c-0.5,0.1-0.9,0.6-0.8,1.1c0.1,0.5,0.5,0.8,1,0.8c0,0,0.1,0,0.2,0l7-1.1  c0.1,0,0.1,0,0.2-0.1l8.6,4.3l-18.2,2.8l-8.5-55.1L14.7,21.2z">
        </path>
        <path xmlns="http://www.w3.org/2000/svg"
            d="M54,23c-0.1-0.5-0.6-0.9-1.1-0.8l-36.2,5.6c-0.5,0.1-0.9,0.6-0.8,1.1c0.1,0.5,0.5,0.8,1,0.8c0,0,0.1,0,0.2,0l36.2-5.6  C53.7,24,54.1,23.5,54,23z">
        </path>
        <path xmlns="http://www.w3.org/2000/svg"
            d="M68.4,38.8c0.1,0.4,0.5,0.7,0.9,0.7c0.1,0,0.2,0,0.3-0.1l6.5-2.2c0.5-0.2,0.8-0.7,0.6-1.3s-0.7-0.8-1.3-0.6l-6.5,2.2  C68.5,37.7,68.3,38.3,68.4,38.8z">
        </path>
        <path xmlns="http://www.w3.org/2000/svg"
            d="M65.6,37.6c0.1,0,0.2,0,0.3-0.1l6.5-2.2c0.5-0.2,0.8-0.7,0.6-1.3s-0.7-0.8-1.3-0.6l-6.5,2.2c-0.5,0.2-0.8,0.7-0.6,1.3  C64.8,37.4,65.2,37.6,65.6,37.6z">
        </path>
        <path xmlns="http://www.w3.org/2000/svg"
            d="M40.5,42.8c-0.1,0.2-0.1,0.5-0.1,0.8c0.1,0.3,0.3,0.5,0.5,0.6l7.4,3.7c0.1,0.1,0.3,0.1,0.4,0.1c0.4,0,0.7-0.2,0.9-0.6  l2.4-4.9c0.1-0.2,0.1-0.5,0.1-0.8c-0.1-0.3-0.3-0.5-0.5-0.6l-7.4-3.7c-0.5-0.2-1.1,0-1.3,0.4L40.5,42.8z M44.2,39.7l5.6,2.8  l-1.5,3.1l-5.6-2.8L44.2,39.7z">
        </path>
        <path xmlns="http://www.w3.org/2000/svg"
            d="M43.8,55.1c-3.6,7.2-0.7,16.1,6.6,19.7c2.1,1,4.3,1.6,6.5,1.6c1.6,0,3.1-0.3,4.7-0.8c3.7-1.2,6.7-3.9,8.5-7.4  c3.6-7.2,0.7-16.1-6.6-19.7c-3.5-1.8-7.5-2-11.2-0.8C48.5,48.9,45.5,51.6,43.8,55.1z M52.9,49.6c1.3-0.4,2.7-0.7,4-0.7  c1.9,0,3.9,0.5,5.6,1.3c6.2,3.1,8.8,10.7,5.7,17v0c-1.5,3-4.1,5.3-7.3,6.4c-3.2,1.1-6.6,0.8-9.7-0.7c-6.2-3.1-8.8-10.7-5.7-17  C47.1,52.9,49.7,50.7,52.9,49.6z">
        </path>
        <path xmlns="http://www.w3.org/2000/svg"
            d="M52.2,71c1.5,0.7,3.1,1.1,4.7,1.1c1.1,0,2.2-0.2,3.3-0.5c2.7-0.9,4.8-2.8,6.1-5.3c0,0,0,0,0,0c1.2-2.5,1.5-5.3,0.6-8  c-0.9-2.7-2.8-4.8-5.3-6.1c-5.2-2.6-11.5-0.5-14.1,4.7c-1.3,2.5-1.5,5.3-0.6,8C47.8,67.6,49.7,69.7,52.2,71z M49.3,57.8  c1.5-3,4.5-4.7,7.6-4.7c1.3,0,2.6,0.3,3.8,0.9c2,1,3.5,2.8,4.3,4.9s0.6,4.4-0.5,6.5v0c-1,2-2.8,3.5-4.9,4.3  c-2.1,0.7-4.4,0.6-6.5-0.5c-2-1-3.5-2.8-4.3-4.9S48.3,59.9,49.3,57.8z">
        </path>
    </g>
    <g id="SvgjsG2972" featurekey="nameFeature-0"
        transform="matrix(0.7805144979417332,0,0,0.7805144979417332,73.84578017921353,8.60169062034005)" fill="#222831">
        <path
            d="M9.04 11.440000000000001 l0 28.56 l-6.28 0 l0 -28.56 l6.28 0 z M24.428 11.440000000000001 l11.92 19.16 l0.08 0 l0 -19.16 l5.88 0 l0 28.56 l-6.28 0 l-11.88 -19.12 l-0.08 0 l0 19.12 l-5.88 0 l0 -28.56 l6.24 0 z M57.736 11.440000000000001 l0 11.84 l11.16 -11.84 l7.84 0 l-11.16 11.28 l12.24 17.28 l-7.88 0 l-8.6 -12.84 l-3.6 3.64 l0 9.2 l-6.28 0 l0 -28.56 l6.28 0 z M96.764 10.760000000000002 c3.3333 0 6.1332 0.94 8.4 2.82 s3.5734 4.3668 3.92 7.46 l-6.08 0 c-0.21332 -1.4133 -0.92 -2.6 -2.12 -3.56 s-2.5733 -1.44 -4.12 -1.44 c-2.4533 0 -4.36 0.88 -5.72 2.64 s-2.04 4.1468 -2.04 7.16 c0 2.9333 0.68668 5.26 2.06 6.98 s3.2733 2.58 5.7 2.58 c1.8133 0 3.28 -0.55332 4.4 -1.66 s1.8133 -2.6867 2.08 -4.74 l6.08 0 c-0.32 3.6267 -1.62 6.48 -3.9 8.56 s-5.1668 3.12 -8.66 3.12 c-4.1868 0 -7.5732 -1.38 -10.16 -4.14 s-3.88 -6.3268 -3.88 -10.7 c0 -4.4268 1.28 -8.0468 3.84 -10.86 s5.96 -4.22 10.2 -4.22 z M123.512 11.440000000000001 l0 10.96 l11.56 0 l0 -10.96 l6.28 0 l0 28.56 l-6.28 0 l0 -12.32 l-11.56 0 l0 12.32 l-6.28 0 l0 -28.56 l6.28 0 z M165.9 11.440000000000001 c2.4 0 4.3936 0.74 5.98 2.22 s2.38 3.3667 2.38 5.66 c0 3.5733 -1.5067 5.96 -4.52 7.16 l0 0.08 c1.0133 0.29332 1.8066 0.78 2.38 1.46 s1.0066 1.4733 1.3 2.38 s0.48 2.36 0.56 4.36 c0.10668 2.6133 0.48 4.36 1.12 5.24 l-6.28 0 c-0.34668 -0.88 -0.61336 -2.5333 -0.80004 -4.96 c-0.21332 -2.56 -0.68 -4.2332 -1.4 -5.02 s-1.8933 -1.18 -3.52 -1.18 l-6.32 0 l0 11.16 l-6.28 0 l0 -28.56 l15.4 0 z M163.70000000000002 24.36 c1.3333 0 2.38 -0.3 3.14 -0.9 s1.14 -1.66 1.14 -3.18 c0 -1.44 -0.37332 -2.46 -1.12 -3.06 s-1.8134 -0.9 -3.2 -0.9 l-6.88 0 l0 8.04 l6.92 0 z M195.808 10.760000000000002 c4.2132 0 7.6068 1.4 10.18 4.2 s3.86 6.4268 3.86 10.88 c0 4.3468 -1.2933 7.9068 -3.88 10.68 s-5.9732 4.16 -10.16 4.16 c-4.2132 0 -7.6068 -1.3867 -10.18 -4.16 s-3.86 -6.3332 -3.86 -10.68 c0 -4.4268 1.2933 -8.0468 3.88 -10.86 s5.9732 -4.22 10.16 -4.22 z M188.048 25.84 c0 2.88 0.67996 5.1932 2.04 6.94 s3.2667 2.62 5.72 2.62 c2.4 0 4.2932 -0.86 5.68 -2.58 s2.08 -4.0468 2.08 -6.98 c0 -3.0667 -0.68668 -5.4668 -2.06 -7.2 s-3.2866 -2.6 -5.74 -2.6 c-2.4 0 -4.2868 0.86668 -5.66 2.6 s-2.06 4.1332 -2.06 7.2 z M223.99599999999998 11.440000000000001 l11.92 19.16 l0.08 0 l0 -19.16 l5.88 0 l0 28.56 l-6.28 0 l-11.88 -19.12 l-0.08 0 l0 19.12 l-5.88 0 l0 -28.56 l6.24 0 z M257.304 11.440000000000001 l0 28.56 l-6.28 0 l0 -28.56 l6.28 0 z M279.252 10.760000000000002 c3.3333 0 6.1332 0.94 8.4 2.82 s3.5734 4.3668 3.92 7.46 l-6.08 0 c-0.21332 -1.4133 -0.92 -2.6 -2.12 -3.56 s-2.5733 -1.44 -4.12 -1.44 c-2.4533 0 -4.36 0.88 -5.72 2.64 s-2.04 4.1468 -2.04 7.16 c0 2.9333 0.68668 5.26 2.06 6.98 s3.2733 2.58 5.7 2.58 c1.8133 0 3.28 -0.55332 4.4 -1.66 s1.8133 -2.6867 2.08 -4.74 l6.08 0 c-0.32 3.6267 -1.62 6.48 -3.9 8.56 s-5.1668 3.12 -8.66 3.12 c-4.1868 0 -7.5732 -1.38 -10.16 -4.14 s-3.88 -6.3268 -3.88 -10.7 c0 -4.4268 1.28 -8.0468 3.84 -10.86 s5.96 -4.22 10.2 -4.22 z M306.00000000000006 11.440000000000001 l0 23.28 l13.92 0 l0 5.28 l-20.2 0 l0 -28.56 l6.28 0 z M348.42800000000005 11.440000000000001 l0 5.28 l-15.08 0 l0 6.12 l13.84 0 l0 4.88 l-13.84 0 l0 7 l15.4 0 l0 5.28 l-21.68 0 l0 -28.56 l21.36 0 z M366.4560000000001 10.760000000000002 c3.4933 0 6.2732 0.80004 8.34 2.4 s3.1 3.8667 3.1 6.8 l-6.08 0 c-0.08 -1.44 -0.56668 -2.52 -1.46 -3.24 s-2.2733 -1.08 -4.14 -1.08 c-1.3067 0 -2.36 0.28668 -3.16 0.86 s-1.2 1.3666 -1.2 2.38 c0 0.82668 0.24668 1.4267 0.74 1.8 s1.1933 0.70664 2.1 0.99996 s2.4934 0.72 4.76 1.28 c2.3733 0.58668 4.2 1.2267 5.48 1.92 s2.2533 1.58 2.92 2.66 s1 2.4067 1 3.98 c0 1.8133 -0.48 3.4266 -1.44 4.84 s-2.36 2.4866 -4.2 3.22 s-3.92 1.1 -6.24 1.1 c-3.5467 0 -6.46 -0.88668 -8.74 -2.66 s-3.42 -4.2068 -3.42 -7.3 l0 -0.2 l6.08 0 c0 1.68 0.57332 2.98 1.72 3.9 s2.6667 1.38 4.56 1.38 c1.68 0 3.0333 -0.3 4.06 -0.9 s1.54 -1.4867 1.54 -2.66 c0 -0.77332 -0.28 -1.4266 -0.84 -1.96 s-1.3067 -0.96664 -2.24 -1.3 s-2.5066 -0.75332 -4.72 -1.26 c-2.56 -0.64 -4.4268 -1.32 -5.6 -2.04 s-2.0666 -1.5933 -2.68 -2.62 s-0.92 -2.26 -0.92 -3.7 c0 -1.7867 0.51332 -3.3467 1.54 -4.68 s2.3667 -2.32 4.02 -2.96 s3.36 -0.96 5.12 -0.96 z">
        </path>
    </g>
</svg>